<svg width="192" height="192" viewBox="0 0 192 192" fill="none" xmlns="http://www.w3.org/2000/svg">
<rect width="192" height="192" fill="white"/>
<path d="M44.0732 24.25C57.2518 24.2501 67.8955 34.8198 67.8955 47.8096C67.8953 60.7991 57.2517 71.368 44.0732 71.3682C30.8947 71.3682 20.2502 60.7992 20.25 47.8096C20.25 34.8197 30.8945 24.25 44.0732 24.25Z" stroke="#23116E" stroke-width="4.5"/>
<path d="M143.927 24.25C157.106 24.2501 167.75 34.8198 167.75 47.8096C167.749 60.7991 157.106 71.368 143.927 71.3682C130.749 71.3682 120.104 60.7992 120.104 47.8096C120.104 34.8197 130.749 24.25 143.927 24.25Z" stroke="#23116E" stroke-width="4.5"/>
<path d="M44.0732 119.632C57.2518 119.632 67.8955 130.201 67.8955 143.191C67.8953 156.181 57.2517 166.75 44.0732 166.75C30.8947 166.75 20.2502 156.181 20.25 143.191C20.25 130.201 30.8945 119.632 44.0732 119.632Z" stroke="#23116E" stroke-width="4.5"/>
<path d="M143.927 119.632C157.106 119.632 167.75 130.201 167.75 143.191C167.749 156.181 157.106 166.75 143.927 166.75C130.749 166.75 120.104 156.181 120.104 143.191C120.104 130.201 130.749 119.632 143.927 119.632Z" stroke="#23116E" stroke-width="4.5"/>
<path d="M94.0002 71.3798C107.133 71.3799 117.822 82.1547 117.823 95.4999C117.823 108.845 107.133 119.62 94.0002 119.62C80.8671 119.62 70.177 108.845 70.177 95.4999C70.1771 82.1546 80.8672 71.3798 94.0002 71.3798Z" stroke="#23116E" stroke-width="4.5"/>
<ellipse cx="44.073" cy="47.8092" rx="17.1971" ry="16.8321" fill="#0E0323"/>
<ellipse cx="143.927" cy="47.8092" rx="17.1971" ry="16.8321" fill="#0E0323"/>
<ellipse cx="44.073" cy="143.191" rx="17.1971" ry="16.8321" fill="#0E0323"/>
<ellipse cx="143.927" cy="143.191" rx="17.1971" ry="16.8321" fill="#0E0323"/>
<ellipse cx="94.0001" cy="95.5" rx="17.1971" ry="16.271" fill="#0E0323"/>
<rect x="67.5651" y="44.3696" width="33.0435" height="3.19565" fill="#23116E"/>
<rect x="97.3042" y="50.7609" width="23.1304" height="3.19565" fill="#23116E"/>
<rect x="97.3042" y="47.5653" width="3.30435" height="3.19565" fill="#23116E"/>
<rect x="150.174" y="69.9347" width="31.9565" height="3.30435" transform="rotate(90 150.174 69.9347)" fill="#23116E"/>
<rect x="143.565" y="98.6957" width="22.3696" height="3.30435" transform="rotate(90 143.565 98.6957)" fill="#23116E"/>
<rect x="146.87" y="98.6957" width="3.19565" height="3.30435" transform="rotate(90 146.87 98.6957)" fill="#23116E"/>
<rect x="37.8259" y="121.065" width="31.9565" height="3.30435" transform="rotate(-90 37.8259 121.065)" fill="#23116E"/>
<rect x="44.4349" y="92.3043" width="22.3696" height="3.30435" transform="rotate(-90 44.4349 92.3043)" fill="#23116E"/>
<rect x="41.1306" y="92.3043" width="3.19565" height="3.30435" transform="rotate(-90 41.1306 92.3043)" fill="#23116E"/>
<rect x="67.5651" y="140.239" width="33.0435" height="3.19565" fill="#23116E"/>
<rect x="97.3042" y="146.63" width="23.1304" height="3.19565" fill="#23116E"/>
<rect x="97.3042" y="143.435" width="3.30435" height="3.19565" fill="#23116E"/>
<rect x="67.927" y="27.6107" width="49.927" height="3.36641" rx="1" fill="#23116E" fill-opacity="0.2"/>
<rect x="25.7664" y="72.4962" width="48.2519" height="3.32847" rx="1" transform="rotate(90 25.7664 72.4962)" fill="#23116E" fill-opacity="0.2"/>
<rect x="160.015" y="119.626" width="48.2519" height="3.32847" rx="1" transform="rotate(-90 160.015 119.626)" fill="#23116E" fill-opacity="0.2"/>
<rect x="67.927" y="160.023" width="49.927" height="3.36641" rx="1" fill="#23116E" fill-opacity="0.2"/>
<rect width="20.9069" height="6.50091" transform="matrix(0.718831 -0.695185 0.718831 0.695185 59.2125 124.691)" fill="#23116E"/>
<rect width="20.9069" height="6.50091" transform="matrix(0.718831 0.695185 -0.718831 0.695185 111.89 111.478)" fill="#23116E"/>
<rect width="20.9069" height="6.50091" transform="matrix(0.718831 0.695185 -0.718831 0.695185 62.3251 63.5435)" fill="#23116E"/>
<rect width="22.8108" height="6.50091" transform="matrix(0.718831 -0.695185 0.718831 0.695185 107.217 76.2056)" fill="#23116E"/>
</svg>
